<?xml version="1.0" encoding="UTF-8"?>
<!DOCTYPE svg PUBLIC "-//W3C//DTD SVG 1.1//EN" "http://www.w3.org/Graphics/SVG/1.1/DTD/svg11.dtd">
<svg version="1.1" xmlns="http://www.w3.org/2000/svg" xmlns:xlink="http://www.w3.org/1999/xlink" x="0" y="0" width="192.703" height="416.315" viewBox="0, 0, 192.703, 416.315">
  <g id="Background">
    <rect x="0" y="0" width="192.703" height="416.315" fill="#000000" fill-opacity="0"/>
  </g>
  <g id="Layer_1">
    <path d="M12.632,352.324 C18.691,315.818 13.03,273.996 7.817,237.613 C5.858,223.937 7.796,211.338 5.245,197.537 C2.019,180.082 1.276,161.955 3.768,144.466 C6.137,127.846 11.593,113.154 17.776,97.73 C21.147,89.322 24.754,81.064 28.116,72.67 C29.973,68.035 39.223,63.087 39.223,58.966 C39.223,38.561 53.736,10.883 70.247,-0.001 C92.377,44.454 133.071,18.888 166.276,4.422 C159.299,15.814 144.995,30.721 142.637,44.224 C145.024,42.343 146.283,42.513 148.547,41.276 C146.227,43.613 144.865,46.326 142.637,48.646 C144.473,47.457 146.705,46.88 148.547,45.699 C133.393,61.275 148.257,79.839 141.16,97.293 C137.113,107.246 130.818,111.843 130.818,123.091 C130.818,131.731 121.988,136.286 114.568,137.096 C120.986,141.131 124.173,149.269 127.001,156.32 C132.526,170.102 141.945,179.934 148.547,193.114 C159.061,214.107 167.926,239.15 170.707,262.4 C172.123,274.23 172.184,285.894 172.184,297.779 C172.184,306.199 186.471,317.984 189.913,325.789 C197.857,343.797 187.544,364.656 175.14,377.385 C157.601,395.387 130.947,401.305 106.812,407.328 C84.535,412.887 60.592,419.195 37.747,413.502 C20.466,409.193 0.149,386.006 29.54,395.785 C49.896,402.558 74.869,398.9 95.032,391.717 C116.666,384.01 184.42,367.846 166.278,330.211 C156.084,349.611 120.137,371.871 101.273,372.963 C91.546,373.526 90.144,370.705 84.285,364.854 C76.395,356.975 91.977,347.795 96.842,343.479 C91.14,343.954 67.507,339.057 65.356,346.567 C62.707,355.817 59.147,363.042 55.476,371.489 C52.543,378.237 38.733,404.895 25.191,391.389 C22.615,388.819 16.263,385.237 14.11,383.28 C12.935,382.214 11.772,378.112 11.156,377.385 C9.526,375.461 4.784,377.932 3.03,374.436 C-0.179,368.041 -1.767,350.025 12.632,352.324 M39.225,328.738 C38.826,312.799 45.051,297.146 43.657,281.564 C47.82,298.996 38.177,312.517 39.225,328.738" fill="#F2F2D3" id="path3"/>
    <path d="M18.543,403.919 C13.25,400.681 10.128,388.663 18.542,392.862 C25.594,396.38 37.139,398.864 45.135,399.495 C68.464,401.335 92.937,392.419 114.57,384.755 C135.031,377.507 155.332,373.722 164.088,351.886 C167.514,343.345 165.514,337.718 166.277,330.21 C167.463,318.575 173.033,308.847 172.185,296.306 C173.623,305.124 182.888,312.122 186.958,319.894 C192.421,330.32 191.39,336.873 191.39,347.9 C191.39,367.865 169.449,386.533 152.98,393.599 C117.971,408.625 51.959,430.306 18.543,403.919" fill="#402B14" id="path5"/>
    <path d="M2.291,370.013 C-1.356,367.355 -0.49,358.835 3.77,355.271 C10.986,349.234 12.587,354.912 18.544,359.695 C17.559,359.695 16.574,359.695 15.589,359.695 C18.648,360.107 22.028,361.289 25.931,361.17 C23.652,364.744 26.671,363.387 24.452,365.592 C30.582,371.867 61.689,373.58 54.738,359.696 C48.419,347.075 67.741,333.19 73.205,330.212 C75.734,333.382 77.932,332.972 80.592,334.634 C80.597,333.193 80.442,331.644 80.592,330.212 C81.858,332.321 83.876,334.083 85.024,336.11 C85.024,335.126 85.024,334.143 85.024,333.161 C101.269,343.507 131.029,357.177 151.505,344.954 C139.818,358.034 111.989,377.37 95.365,372.964 C75.38,367.665 85.143,353.859 96.842,343.48 C86.401,344.347 78.123,342.5 67.733,344.574 C63.283,345.461 61.497,360.953 59.17,365.592 C55.113,373.68 52.502,384.334 45.136,389.18 C37.693,394.076 21.794,393.272 15.589,387.705 C14.068,386.34 12.704,379.215 11.157,377.387 C7.874,373.509 2.495,379.136 2.291,370.013" fill="#402B14" id="path7"/>
    <path d="M102.751,113.512 C94.926,113.112 85.51,109.235 79.114,106.14 C79.114,107.122 79.114,108.105 79.114,109.087 C75.243,106.03 68.816,105.662 65.817,103.191 C64.131,103.68 65.123,104.635 62.862,104.666 C70.996,88.044 42.849,97.849 43.657,84.026 C45.83,86.535 48.875,87.767 51.044,89.924 C50.552,89.432 50.06,88.941 49.567,88.449 C51.567,89.122 54.83,89.433 56.954,89.924 C56.734,85.069 58.66,80.675 58.431,75.181 C60.081,79.507 62.127,81.167 65.818,84.025 C65.326,83.534 64.834,83.043 64.341,82.552 C71.791,84.683 76.816,79.104 85.023,79.602 C84.433,79.292 82.806,78.453 82.068,78.129 C83.078,78.153 85.598,78.545 86.502,78.129 C86.994,76.653 86.501,76.162 85.023,76.654 C93.418,73.581 89.877,65.675 92.41,58.964 C92.902,59.456 93.394,59.947 93.887,60.439 C93.432,52.968 86.818,47.347 79.116,48.646 C81.013,48.227 80.497,47.862 82.069,47.171 C81.085,47.171 80.1,47.171 79.116,47.171 C81.536,43.334 80.714,42.624 82.069,38.327 C81.577,39.31 81.085,40.293 80.592,41.276 C87.906,24.553 77.989,19.592 70.25,5.896 C62.44,9.605 49.673,26.269 49.567,35.379 C49.461,44.427 54.83,42.578 64.34,44.225 C60.588,46.002 58.032,47.561 53.998,48.647 C54.983,48.647 55.968,48.647 56.953,48.647 C51.264,49.575 47.984,51.572 52.521,56.019 C51.536,56.019 50.551,56.019 49.566,56.019 C52.162,56.673 54.337,58.392 56.953,58.966 C55.453,59.846 54.599,61.478 53.998,61.915 C45.503,54.459 42.237,53.315 37.748,67.81 C39.798,43.892 49.544,13.647 70.248,-0 C75.556,10.663 85.356,15.198 87.977,28.009 C87.485,27.517 86.993,27.026 86.5,26.534 C89.678,33.569 86.082,37.493 88.715,42.75 C92.179,49.666 99.503,52.876 101.272,60.439 C102.161,59.001 102.13,59.038 102.751,57.492 C103.564,61.114 104.993,63.956 105.707,67.809 C106.199,66.335 106.691,64.861 107.184,63.387 C107.676,64.37 108.168,65.353 108.661,66.336 C109.05,55.574 106.591,53.232 102.752,42.749 C109.747,48.192 113.856,54.715 114.571,63.387 C114.618,58.746 115.237,56.302 114.571,51.593 C116.124,55.344 118.491,58.44 120.481,61.914 C120.481,54.668 117.383,44.467 123.434,41.276 C121.951,41.847 120.5,41.671 119.002,42.749 C120.385,37.954 122.833,33.225 126.389,29.483 C124.188,29.331 125.01,30.124 123.434,30.956 C119.428,27.884 122.918,28.089 117.526,26.534 C129.835,17.605 152.147,10.578 166.278,4.422 C162.885,12.099 158.872,18.484 152.981,25.061 C155.598,21.322 159.034,16.766 158.891,11.792 C155.274,14.077 152.319,17.026 150.026,20.638 C150.026,19.655 150.026,18.672 150.026,17.689 C141.298,25.414 131.426,38.101 129.344,48.646 C128.09,54.996 131.448,73.476 141.162,70.758 C140.862,76.707 144.402,81.194 144.117,86.974 C143.7,95.437 136.962,101.02 134.513,108.35 C132.896,113.192 130.249,115.559 127.126,118.669 C124.62,121.166 124.135,126.841 121.956,131.199 C124.296,131.816 123.177,131.691 123.433,134.148 C124.927,133.192 126.283,132.141 127.867,131.199 C121.162,139.155 99.141,141.992 90.932,135.621 C96.048,137.412 97.74,136.546 102.75,135.621 C101.824,135.599 107.06,133.409 110.138,131.199 C106.114,125.529 110.167,120.244 102.75,116.456 C104.603,116.481 106.847,116.096 108.659,116.456 C105.62,116.115 102.986,115.273 99.795,114.983 C100.781,114.494 101.766,114.002 102.751,113.512" fill="#5E3F1D" id="path9"/>
    <g id="path11">
      <path d="M93.886,101.718 C79.886,107.69 78.307,82.95 90.933,88.45 C90.437,90.551 90.248,93.899 89.454,95.82 C96.902,79.526 104.998,103.741 93.886,101.718" fill="#402B14"/>
      <path d="M93.886,101.718 C79.886,107.69 78.307,82.95 90.933,88.45 C90.437,90.551 90.248,93.899 89.454,95.82 C96.902,79.526 104.998,103.741 93.886,101.718" fill-opacity="0" stroke="#000000" stroke-width="0.345" stroke-miterlimit="9.429"/>
    </g>
    <g id="path13">
      <path d="M124.912,106.14 C125.545,100.949 126.631,95.675 130.82,92.872 C130.451,94.87 129.691,96.676 129.343,98.768 C129.56,98.092 138.901,83.452 138.206,92.872 C137.541,101.902 131.496,101.787 124.912,106.14" fill="#402B14"/>
      <path d="M124.912,106.14 C125.545,100.949 126.631,95.675 130.82,92.872 C130.451,94.87 129.691,96.676 129.343,98.768 C129.56,98.092 138.901,83.452 138.206,92.872 C137.541,101.902 131.496,101.787 124.912,106.14" fill-opacity="0" stroke="#000000" stroke-width="0.345" stroke-miterlimit="9.429"/>
    </g>
    <path d="M59.909,39.803 C57.27,38.802 55.556,37.827 52.522,38.328 C54.191,39.299 55.445,40.156 56.954,41.277 C39.107,49.446 60.484,10.041 70.249,5.897 C76.246,16.511 93.747,31.3 73.204,38.328 C73.407,38.861 74.679,35.477 74.681,35.379 C73.225,36.872 71.661,38.27 70.249,39.803 C70.742,38.328 71.235,36.854 71.728,35.379 C70.261,36.546 69.18,37.69 67.294,38.328 C68.228,36.659 69.389,36.296 68.773,33.906 C64.409,35.822 63.232,36.249 58.431,36.855 C58.923,37.838 59.416,38.82 59.909,39.803 M130.82,45.7 C130.359,37.311 143.799,23.202 150.025,17.691 C150.025,18.674 150.025,19.657 150.025,20.64 C152.318,17.028 155.273,14.079 158.89,11.794 C159.146,20.774 139.456,55.916 130.82,45.7" fill="#E0D0D0" id="path15"/>
    <path d="M83.546,88.45 C90.243,85.415 92.164,89.095 89.454,95.82 C94.097,84.949 103.252,92.907 96.841,98.769 C89.932,105.086 80.367,95.383 83.546,88.45 M126.389,101.718 C127.452,98.111 127.319,95.401 130.821,92.872 C130.484,94.696 129.778,96.918 129.344,98.768 C136.066,77.9 142.889,104.793 126.389,101.718" fill="#7DCFFF" id="path17"/>
    <path d="M14.109,346.425 C14.109,307.339 7.192,268.706 6.722,229.968 C6.361,200.187 -4.608,163.328 6.722,134.149 C6.021,141.957 6.26,153.593 15.588,154.787 C-0.386,176.346 12.632,192.327 12.632,215.226 C12.632,226.648 11.46,231.16 17.065,239.548 C22.29,247.37 29.695,248.611 33.314,255.03 C26.985,259.774 33.561,267.612 34.793,274.19 C36.895,285.413 30.403,297.862 35.531,308.098 C42.171,321.35 39.557,358.717 24.451,364.116 C24.943,362.593 25.637,363.091 25.93,361.169 C22.027,361.288 18.647,360.106 15.588,359.694 C16.573,359.694 17.558,359.694 18.543,359.694 C13.124,358.069 15.001,358.256 12.632,353.796 C25.225,356.87 31.104,332.587 30.361,322.841 C29.868,323.331 29.375,323.823 28.882,324.316 C28.82,320.931 31.597,311.664 28.883,310.31 C24.685,308.214 22.817,305.24 22.974,300.728 C17.775,305.855 24.206,319.38 22.974,327.263 C22.207,332.175 18.517,343.3 14.109,346.425 M56.954,342.003 C53.866,334.165 63.661,329.337 65.817,321.366 C67.264,316.018 62.157,310.555 65.817,305.149 C67.423,302.778 74.866,304.34 79.114,299.253 C84.59,292.694 79.937,283.929 90.932,281.564 C81.036,273.951 96.818,265.777 90.932,256.503 C84.84,264.612 77.792,278.491 67.293,280.089 C67.578,273.689 68.557,262.755 76.159,266.821 C75.864,257.233 87.977,256.676 87.977,244.71 C87.977,239.054 94.304,234.622 96.84,229.968 C99.846,224.452 99.591,222.511 101.272,216.7 C105.836,200.926 109.126,185.989 108.66,169.528 C108.391,160.105 113.728,145.776 110.139,137.096 C119.168,136.022 121.614,145.256 124.91,151.837 C130.917,163.827 137.411,173.137 144.117,184.268 C154.912,202.185 162.062,225.557 167.754,245.446 C177.482,279.436 181.464,344.296 135.252,347.899 C146.953,337.889 144.25,321.411 148.549,308.098 C151.979,297.479 164.819,290.45 159.629,280.088 C154.335,269.518 169.743,260.914 166.277,253.553 C161.684,243.793 144.32,252.49 138.207,249.131 C141.929,243.918 151.504,242.49 151.504,233.652 C151.504,220.56 151.558,208.346 144.117,197.535 C138.548,189.442 131.086,185.594 128.961,174.985 C125.916,159.791 122.351,149.417 113.094,137.095 C113.094,144.466 113.088,151.837 113.094,159.207 C113.098,165.661 115.376,175.153 113.832,181.319 C109.69,197.853 112.087,212.456 110.139,228.491 C103.59,225.649 99.483,242.382 96.103,249.13 C93.356,254.614 105.5,262.601 98.319,269.769 C89.792,278.279 82.169,295.402 77.636,306.623 C72.033,320.494 65.202,329.14 56.954,342.003 M67.293,300.728 C69.853,295.763 70.937,290.083 70.248,284.513 C85.446,286.152 68.512,301.093 67.293,300.728 M40.701,259.453 C35.186,246.764 23.029,238.615 18.543,225.545 C23.313,235.145 31.796,230.611 37.748,235.865 C44.78,242.074 40.718,248.824 40.701,259.453 M93.886,101.718 C85.478,105.304 78.948,96.473 83.546,88.45 C78.268,99.227 95.018,104.275 99.796,94.347 C101.188,99.926 99.617,102.761 93.886,101.718 M124.912,106.14 C128.34,99.981 137.354,101.398 138.207,91.397 C139.017,101.283 131.506,101.78 124.912,106.14 M39.225,113.512 C46.285,91.047 14.048,80.887 39.225,60.441 C36.332,68.98 35.505,77.305 38.487,86.238 C41.593,95.545 50.887,103.638 52.523,112.035 C47.465,108.891 40.67,105.208 39.225,113.512 M95.364,32.431 C92.793,30.293 91.014,27.776 90.932,23.585 C98.545,26.316 106.693,24.359 114.57,26.535 C109.15,28.078 108.332,33.014 105.707,38.328 C103.799,33.845 100.973,30.593 96.841,28.009 C96.3,29.63 95.843,30.783 95.364,32.431" fill="#BFAD84" id="path19"/>
    <path d="M129.344,129.727 C137.1,129.119 144.778,129.948 151.504,134.149" fill-opacity="0" stroke="#000000" stroke-width="0.345" stroke-linecap="square" stroke-miterlimit="9.429" id="path249"/>
    <path d="M129.344,128.25 C137.619,126.055 148.453,125.019 155.936,129.727" fill-opacity="0" stroke="#000000" stroke-width="0.345" stroke-linecap="square" stroke-miterlimit="9.429" id="path251"/>
    <path d="M173.664,128.25 C162.736,118.355 143.878,126.137 130.82,125.303" fill-opacity="0" stroke="#000000" stroke-width="0.345" stroke-linecap="square" stroke-miterlimit="9.429" id="path253"/>
    <path d="M130.82,123.829 C136.918,123.219 142.525,121.37 148.549,120.881" fill-opacity="0" stroke="#000000" stroke-width="0.345" stroke-linecap="square" stroke-miterlimit="9.429" id="path255"/>
    <path d="M130.82,120.881 C139.906,117.33 151.07,114.287 160.367,117.934" fill-opacity="0" stroke="#000000" stroke-width="0.345" stroke-linecap="square" stroke-miterlimit="9.429" id="path257"/>
    <path d="M87.978,128.25 C75.002,131.129 57.944,133.165 49.567,144.466" fill-opacity="0" stroke="#000000" stroke-width="0.345" stroke-linecap="square" stroke-miterlimit="9.429" id="path259"/>
    <path d="M89.454,126.778 C74.374,126.778 60.15,126.354 46.612,134.15" fill-opacity="0" stroke="#000000" stroke-width="0.345" stroke-linecap="square" stroke-miterlimit="9.429" id="path261"/>
    <path d="M28.883,135.622 C43.793,117.809 65.635,125.132 85.023,123.829" fill-opacity="0" stroke="#000000" stroke-width="0.345" stroke-linecap="square" stroke-miterlimit="9.429" id="path263"/>
    <path d="M89.454,123.829 C81.674,121.89 73.888,119.1 65.817,119.407" fill-opacity="0" stroke="#000000" stroke-width="0.345" stroke-linecap="square" stroke-miterlimit="9.429" id="path265"/>
    <path d="M83.546,120.881 C72.846,113.929 60.655,109.223 48.088,113.512" fill-opacity="0" stroke="#000000" stroke-width="0.345" stroke-linecap="square" stroke-miterlimit="9.429" id="path267"/>
    <path d="M14.109,131.2 C14.088,129.607 14.611,128.09 15.588,126.778" fill-opacity="0" stroke="#000000" stroke-width="0.345" stroke-linecap="square" stroke-miterlimit="9.429" id="path269"/>
    <path d="M11.156,126.778 C12.831,125.686 13.905,124.155 14.11,122.356" fill-opacity="0" stroke="#000000" stroke-width="0.345" stroke-linecap="square" stroke-miterlimit="9.429" id="path271"/>
    <path d="M11.156,123.829 C12.235,120.225 13.715,116.781 15.588,113.512" fill-opacity="0" stroke="#000000" stroke-width="0.345" stroke-linecap="square" stroke-miterlimit="9.429" id="path273"/>
    <path d="M12.632,114.984 C12.792,110.398 14.924,106.196 18.543,103.191" fill-opacity="0" stroke="#000000" stroke-width="0.345" stroke-linecap="square" stroke-miterlimit="9.429" id="path275"/>
    <path d="M71.727,113.512 C82.651,124.723 92.306,149.166 113.094,135.622" fill-opacity="0" stroke="#000000" stroke-width="0.345" stroke-linecap="square" stroke-miterlimit="9.429" id="path277"/>
    <path d="M108.66,123.829 C104.932,130.504 116.123,136.29 121.957,131.201 C128.516,125.479 123.631,111.255 125.65,103.191 C132.764,74.768 144.722,105.136 126.388,101.718" fill-opacity="0" stroke="#000000" stroke-width="0.345" stroke-linecap="square" stroke-miterlimit="9.429" id="path281"/>
    <path d="M132.299,91.397 C131.727,95.033 132.967,97.261 129.344,98.768 C129.012,96.171 130.399,95.16 130.821,92.872" fill-opacity="0" stroke="#000000" stroke-width="0.345" stroke-linecap="square" stroke-miterlimit="9.429" id="path283"/>
    <path d="M99.796,94.347 C95.703,101.802 85.699,102.258 82.807,93.609 C79.047,82.364 95.974,89.971 99.796,94.347" fill-opacity="0" stroke="#000000" stroke-width="0.345" stroke-linecap="square" stroke-miterlimit="9.429" id="path285"/>
    <path d="M93.886,88.45 C92.592,91.809 91.603,94.39 89.454,95.82 C89.612,93.103 90.327,91.019 90.933,88.45" fill-opacity="0" stroke="#000000" stroke-width="0.345" stroke-linecap="square" stroke-miterlimit="9.429" id="path287"/>
  </g>
</svg>
