<?xml version="1.0" encoding="UTF-8"?>
<!DOCTYPE svg PUBLIC "-//W3C//DTD SVG 1.1//EN" "http://www.w3.org/Graphics/SVG/1.1/DTD/svg11.dtd">
<svg version="1.1" xmlns="http://www.w3.org/2000/svg" xmlns:xlink="http://www.w3.org/1999/xlink" x="0" y="0" width="419.351" height="349.19" viewBox="0, 0, 419.351, 349.19">
  <g id="Background">
    <rect x="0" y="0" width="419.351" height="349.19" fill="#000000" fill-opacity="0"/>
  </g>
  <g id="Layer_1">
    <path d="M201.086,349.187 C183.789,341.546 183.465,321.934 190.894,305.373 C162.423,306.03 141.916,325.473 115.17,314.865 C87.215,303.777 53.181,282.161 29.983,264.478 C15.258,253.254 -6.855,232.662 2.314,208.251 C10.972,185.202 40.943,161.653 63.475,142.531 C90.752,119.382 107.217,116.208 139.197,104.559 C156.452,98.273 173.629,90.727 190.893,89.225 C202.359,88.227 227.1,92.551 236.036,87.764 C239.365,85.981 240.086,79.058 241.86,75.35 C245.01,68.765 245.419,68.14 251.327,62.936 C260.762,54.627 266.385,44.393 273.897,39.569 C292.518,27.613 300.468,34.116 303.749,12.55 C304.747,5.989 303.137,-0.421 311.03,0.136 C318.238,0.645 319.99,11.494 322.68,17.662 C334.344,44.403 356.335,46.495 378.743,30.076 C386.937,24.071 398.442,12.138 410.053,18.392 C416.059,21.628 418.317,41.027 417.333,50.521 C416.156,61.877 406.411,69.356 403.499,81.921 C400.755,93.761 403.654,103.533 399.131,115.512 C389.988,139.723 407.621,153.952 412.237,180.502 C416.925,207.467 404.787,230.844 395.49,254.984 C387.454,275.85 368.594,297.88 345.979,301.718 C333.211,303.885 322.899,295.875 311.03,294.415 C299.305,292.974 284.26,295.574 270.986,294.415 C241.21,291.814 241.693,309.292 228.026,329.468 C221.198,339.55 213.684,347.542 201.086,349.187" fill="#333333" id="path3"/>
    <path d="M178.515,273.972 C186.897,254.353 201.15,243.392 225.842,249.146 C230.064,233.247 206.3,231.586 212.737,221.396 C216.319,215.725 221.06,221.456 222.93,212.632 C223.716,208.924 220.233,200.461 219.288,196.568 C216.316,184.314 213.688,164.514 196.717,165.899 C183.373,166.988 178.914,195.204 173.674,208.344 C168.966,220.148 167.107,233.851 163.98,246.171 C161.936,254.223 174.285,267.104 178.515,273.972" fill="#000000" id="path5"/>
    <path d="M236.036,85.573 C243.445,97.757 253.092,109.49 257.15,123.545 C261.621,139.028 254.435,145.648 248.412,158.597 C244.278,167.483 243.704,207.299 228.753,203.87 C222.512,202.438 223.232,192.175 220.017,186.345 C216.634,180.21 208.52,171.935 203.998,169.55 C201.67,177.3 202.38,185.687 201.246,194.332 C198.988,211.546 194.926,217.974 188.708,233.08 C185.334,241.276 182.727,258.092 185.068,263.019 C187.726,268.614 194.689,269.96 195.989,278.353 C197.363,287.218 192.807,295.545 187.98,302.817 C183.635,309.363 154.862,315.392 147.206,317.056 C134.913,319.728 124.915,319.153 112.986,314.136 C84.147,302.008 50.505,280.158 27.07,261.558 C12.891,250.304 -6.776,231.361 2.314,208.251 C10.738,186.835 38.176,162.946 61.29,143.992 C73.794,133.739 84.53,124.664 96.968,117.703 C104.503,113.486 124.463,105.289 135.921,105.289 C153.303,105.289 174.618,89.922 190.166,88.494 C199.818,87.608 234.404,92.958 236.036,85.573" fill="#000000" id="path9"/>
    <path d="M332.146,33.728 C321.663,37.173 306.923,33.831 298.652,27.886 C305.641,23.455 298.326,-2.087 311.03,0.137 C323.434,2.31 320.343,31.757 332.146,33.728" fill="#000000" id="path11"/>
    <path d="M345.251,40.3 C354.28,47.154 357.944,68.54 378.018,66.588 C394.064,65.027 403.541,31.843 414.421,19.854 C391.377,3.768 372.212,49.661 345.251,40.3" fill="#000000" id="path13"/>
    <path d="M257.879,126.466 C268.045,138.596 263.798,148.053 257.879,160.787 C255.173,166.608 253.232,171.81 252.055,178.312 C250.29,188.061 253.407,188.02 254.967,193.648 C256.941,200.763 255.944,209.304 256.425,217.746 C257.091,229.429 258.898,228.003 266.617,233.81 C270.748,236.917 275.927,239.805 278.266,245.494 C280.215,250.231 278.623,257.989 281.907,260.828 C287.642,265.789 316.731,264.002 325.591,264.478 C339.485,265.226 356.079,268.348 368.551,263.749 C380.636,259.293 394.042,251.495 398.403,240.382 C404.262,225.45 399.763,221.382 390.396,211.903 C386.626,208.089 381.479,200.907 383.841,194.378 C386.272,187.66 400.696,182.899 387.482,179.773 C380.846,178.203 372.637,185.369 365.639,181.964 C351.518,175.094 363.555,162.026 371.463,153.485 C357.406,145.048 346.328,160.011 328.507,154.216 C321.056,151.793 316.154,145.044 307.391,144.723 C304.431,144.615 300.753,148.189 297.198,148.374 C289.105,148.794 280.366,146.664 277.902,139.246 C274.996,130.504 266.194,129.803 257.879,126.466" fill="#999999" id="path15"/>
    <path d="M266.617,46.872 C283.533,51.232 257.513,60.255 252.781,61.476 C257.483,58.706 265.675,52.08 266.617,46.872" fill="#000000" id="path17"/>
    <path d="M281.907,68.778 C287.301,66.441 301.224,59.774 305.207,59.285 C311.448,58.519 328.878,66.955 324.865,70.969 C321.188,74.647 299.197,72.781 295.74,73.16 C294.206,73.328 270.764,76.355 281.907,68.778" fill="#191919" id="path19"/>
    <path d="M295.011,70.239 C304.427,61.423 314.279,60.453 324.865,70.239 C316.947,71.27 299.605,74.766 295.011,70.239" fill="#000000" id="path21"/>
    <path d="M299.381,70.239 C299.381,71.212 299.381,71.212 299.381,70.239" fill="#663300" id="path23"/>
    <path d="M299.381,70.239 C299.381,71.212 299.381,71.212 299.381,70.239" fill="#693603" id="path25"/>
    <path d="M299.381,70.239 C299.718,70.864 300.241,71.838 299.381,70.239 M319.039,69.508 C320.012,69.508 320.012,69.508 319.039,69.508" fill="#6B3805" id="path27"/>
    <path d="M300.109,70.239 C299.526,70.824 299.521,70.83 300.109,70.239 M319.039,69.508 C319.039,68.535 319.039,68.535 319.039,69.508" fill="#703D0A" id="path29"/>
    <path d="M300.109,69.508 C300.109,71.112 300.109,71.112 300.109,69.508 M319.039,68.778 C319.039,69.751 319.039,69.751 319.039,68.778" fill="#73400D" id="path31"/>
    <path d="M300.109,69.508 C300.412,71.538 300.412,71.538 300.109,69.508 M319.039,68.778 C318.185,70.374 318.703,69.405 319.039,68.778" fill="#75420F" id="path33"/>
    <path d="M300.109,69.508 C300.709,71.292 300.728,71.349 300.109,69.508 M319.039,68.778 C318.421,69.114 317.444,69.645 319.039,68.778" fill="#784512" id="path35"/>
    <path d="M300.837,69.508 C300.864,69.348 300.378,72.157 300.837,69.508 M318.313,68.778 C318.313,69.751 318.313,69.751 318.313,68.778" fill="#7A4714" id="path37"/>
    <path d="M300.837,68.778 C301.063,71.63 301.063,71.63 300.837,68.778 M318.313,68.778 C317.47,70.267 317.47,70.267 318.313,68.778" fill="#7D4A17" id="path39"/>
    <path d="M300.837,68.778 C301.327,71.722 301.226,71.112 300.837,68.778 M318.313,68.778 C318.698,68.524 315.936,70.346 318.313,68.778" fill="#824F1C" id="path41"/>
    <path d="M300.837,68.778 C301.623,70.914 301.764,71.295 300.837,68.778 M317.585,68.049 C317.585,70.383 317.585,70.383 317.585,68.049" fill="#85521F" id="path43"/>
    <path d="M301.563,68.049 C301.584,69.148 300.908,69.939 302.292,70.969 C301.182,70.446 301.593,69.535 301.563,68.049 M317.585,68.049 C317.322,70.689 317.311,70.8 317.585,68.049" fill="#875421" id="path45"/>
    <path d="M301.563,68.049 C301.718,69.561 301.096,70.406 302.292,70.969 C301.533,70.172 301.719,69.556 301.563,68.049 M317.585,68.049 C316.804,70.376 316.807,70.366 317.585,68.049" fill="#8C5926" id="path47"/>
    <path d="M301.563,68.049 C301.89,69.553 301.472,70.109 302.292,70.969 C301.904,69.414 301.905,69.619 301.563,68.049 M316.856,68.049 M317.585,68.049 C316.841,69.327 315.979,70.808 317.585,68.049" fill="#8F5C29" id="path49"/>
    <path d="M301.563,68.049 C301.66,68.314 302.879,70.688 303.02,70.969 C301.818,70.274 302.085,69.476 301.563,68.049 M316.856,68.049 C316.998,66.214 316.856,69.74 316.856,70.239 C316.229,70.79 316.758,69.323 316.856,68.049" fill="#915E2B" id="path51"/>
    <path d="M302.292,67.318 C302.361,69.054 301.982,70.189 303.021,70.969 C302.045,69.742 302.354,68.881 302.292,67.318 M316.856,67.318 C316.682,68.833 317.336,69.67 316.127,70.239 C316.632,69.282 316.724,68.471 316.856,67.318" fill="#94612E" id="path53"/>
    <path d="M302.292,67.318 C302.444,68.904 302.008,69.695 303.021,70.969 C302.367,69.754 302.432,68.778 302.292,67.318 M316.856,67.318 C316.6,68.08 316.48,67.903 316.127,69.508 C315.604,69.602 316.487,68.417 316.856,67.318" fill="#966330" id="path55"/>
    <path d="M302.292,67.318 C302.712,69.084 302.153,70.244 303.749,70.969 C302.865,70.031 302.652,68.832 302.292,67.318 M316.127,67.318 C316.127,70.399 316.127,70.399 316.127,67.318" fill="#9C6936" id="path57"/>
    <path d="M303.021,66.588 C302.983,68.245 302.124,69.321 303.75,70.969 C302.842,69.582 302.98,68.341 303.021,66.588 M316.127,67.318 C315.972,68.829 316.593,69.674 315.399,70.239 C316.157,69.441 315.973,68.826 316.127,67.318" fill="#9E6B38" id="path59"/>
    <path d="M303.021,66.588 C303.142,68.394 302.786,69.495 303.75,70.969 C303.021,69.516 303.137,68.324 303.021,66.588 M316.127,67.318 C316.055,67.592 315.811,69.271 315.399,70.239 C315.256,68.466 315.84,68.409 316.127,67.318" fill="#A16E3B" id="path61"/>
    <path d="M303.749,66.588 C303.618,68.051 302.423,69.391 304.478,70.969 C302.864,69.51 303.635,67.868 303.749,66.588 M315.399,67.318 C315.47,68.461 315.794,67.971 315.399,70.239 C315.712,68.512 315.447,68.078 315.399,67.318" fill="#A3703D" id="path63"/>
    <path d="M303.749,66.588 C303.709,67.813 302.854,69.501 304.478,70.969 C303.577,69.592 303.691,68.334 303.749,66.588 M315.399,67.318 C315.309,68.818 315.822,69.696 314.67,70.239 C315.683,69.236 315.319,68.646 315.399,67.318" fill="#A67340" id="path65"/>
    <path d="M303.749,65.858 C303.838,67.876 303.553,69.301 304.478,70.969 C303.676,69.666 303.846,68.059 303.749,65.858 M315.399,67.318 C315.65,65.909 314.954,69.553 314.67,70.239 C315.06,68.678 315.115,68.911 315.399,67.318" fill="#AB7845" id="path67"/>
    <path d="M304.479,65.858 C304.416,67.842 302.912,69.388 305.208,70.969 C303.219,69.299 304.424,67.748 304.479,65.858 M315.399,66.588 C315.125,67.67 314.804,68.229 314.67,69.508 C314.859,70.051 315.077,67.86 315.399,66.588" fill="#AD7A47" id="path69"/>
    <path d="M304.479,65.858 C304.338,67.773 303.248,69.323 305.208,70.969 C303.535,68.581 304.499,67.946 304.479,65.858 M314.671,66.588 C314.602,68.324 314.981,69.46 313.942,70.239 C314.918,69.012 314.608,68.151 314.671,66.588" fill="#B07D4A" id="path71"/>
    <path d="M304.479,65.858 C304.504,67.89 303.718,69.193 305.208,70.969 C304.425,69.697 304.506,68.042 304.479,65.858 M314.671,66.588 C314.519,68.175 314.955,68.965 313.942,70.239 C314.596,69.024 314.531,68.048 314.671,66.588" fill="#B5824F" id="path73"/>
    <path d="M305.207,65.858 C305.144,67.84 303.644,69.387 305.933,70.969 C303.951,69.299 305.152,67.746 305.207,65.858 M314.671,66.588 C314.454,67.476 314.068,68.136 313.942,69.508 C314.129,70.045 314.359,67.865 314.671,66.588" fill="#B88552" id="path75"/>
    <path d="M305.207,65.858 C305.044,67.777 303.987,69.33 305.933,70.969 C304.016,68.63 305.191,67.805 305.207,65.858 M313.942,66.588 C313.883,68.319 314.243,69.463 313.216,70.239 C314.243,69.463 313.884,68.319 313.942,66.588" fill="#BA8754" id="path77"/>
    <path d="M305.207,65.858 C305.205,65.655 305.585,69.843 305.933,70.969 C304.054,68.676 305.053,67.817 305.207,65.858 M313.942,66.588 C314.13,64.255 313.333,69.845 313.216,70.239 C314.026,69.266 313.801,68.354 313.942,66.588" fill="#BD8A57" id="path79"/>
    <path d="M305.933,65.127 C305.833,67.536 304.368,69.168 306.662,70.969 C304.507,68.867 305.854,67.282 305.933,65.127 M313.217,65.858 C313.407,68.111 314.794,68.999 312.488,70.239 C314.462,69.051 313.396,67.983 313.217,65.858" fill="#BF8C59" id="path81"/>
    <path d="M305.933,65.127 C305.922,67.27 304.485,68.844 306.662,70.969 C304.808,68.771 305.953,67.539 305.933,65.127 M313.217,65.858 C313.32,68.365 314.398,68.915 312.488,70.239 C314.316,68.011 313.305,68.001 313.217,65.858" fill="#C28F5C" id="path83"/>
    <path d="M306.661,65.127 C306.378,67.436 304.112,68.669 307.39,70.969 C304.337,68.598 306.576,67.766 306.661,65.127 M313.217,65.858 C313.201,66.105 313.02,68.773 312.488,70.239 C313.309,69.093 313.09,67.854 313.217,65.858" fill="#C79461" id="path85"/>
    <path d="M306.661,65.127 C306.345,67.763 304.446,68.682 307.39,70.969 C305.044,68.308 306.682,67.21 306.661,65.127 M312.487,65.858 C312.682,68.189 314.114,69.269 311.758,70.239 C313.739,69.048 312.666,67.983 312.487,65.858" fill="#C99663" id="path87"/>
    <path d="M307.391,65.127 C307.137,67.21 304.248,68.13 308.119,70.969 C304.596,68.837 307.092,67.676 307.391,65.127 M312.487,65.858 C312.558,65.169 312.313,68.707 311.758,70.239 C313.443,68.371 312.73,67.859 312.487,65.858" fill="#CC9966" id="path89"/>
    <path d="M308.118,65.127 C307.118,67.553 304.322,68.343 308.118,70.969 C304.385,67.882 307.354,67.637 308.118,65.127 M311.759,65.127 C311.79,65.955 312.692,68.004 311.03,70.239 C313.289,68.708 312.016,67.324 311.759,65.127" fill="#D19E6B" id="path91"/>
    <path d="M308.118,65.127 C311.76,66.844 314.459,66.67 310.301,70.969 C316.57,65.086 303.377,62.605 308.118,70.969 C305.297,69.262 306.999,67.906 308.118,65.127" fill="#D4A16E" id="path93"/>
    <path d="M308.847,70.969 C314.568,67.849 309.493,65.235 309.576,65.127 C308.815,66.118 303.588,70.966 309.576,70.969 C320.078,70.974 299.005,59.626 308.847,70.969" fill="#D6A370" id="path95"/>
    <path d="M312.487,68.049 C306.449,58.563 305.649,77.214 312.487,68.049 C306.881,61.475 305.183,73.575 312.487,68.049" fill="#D9A673" id="path97"/>
    <path d="M311.759,68.049 C303.031,58.64 311.777,75.488 311.759,68.778 C311.738,61.083 302.485,73.402 311.759,68.049" fill="#DBA875" id="path99"/>
    <path d="M311.759,68.049 C307.824,65.487 307.817,70.369 311.759,68.049" fill="#DEAB78" id="path101"/>
    <path d="M311.759,68.049 C308.909,66.218 306.814,68.863 311.759,68.049" fill="#E3B07D" id="path103"/>
    <path d="M311.03,68.049 C307.357,66.356 306.559,66.4 311.03,69.508 C307.737,64.694 306.675,68.521 311.03,68.049" fill="#E5B27F" id="path105"/>
    <path d="M311.03,68.049 C304.215,65.431 312.596,72.368 308.118,66.588 C308.645,71.428 309.918,67.773 311.03,68.049" fill="#E8B582" id="path107"/>
    <path d="M311.03,68.049 C311.134,68.03 309.707,66.35 308.118,66.588 C308.41,66.797 309.815,69.057 310.301,69.508 C310.058,68.778 310.301,68.535 311.03,68.778 C310.965,68.746 309.738,67.242 310.301,66.588 C309.817,66.588 309.331,66.588 308.847,66.588 C309.09,67.318 308.848,67.561 308.118,67.318 C308.118,67.805 308.118,68.291 308.118,68.778 C309.161,68.863 310.938,67.988 311.03,68.049" fill="#EDBA87" id="path109"/>
    <path d="M310.301,68.049 C309.459,67.771 310.078,65.544 308.118,67.319 C308.118,67.806 308.118,68.292 308.118,68.779 C308.157,68.717 310.208,68.711 310.301,68.779 C310.237,68.718 310.249,66.622 310.301,66.589 C309.817,66.589 309.331,66.589 308.847,66.589 C309.09,67.319 308.848,67.562 308.118,67.319 C309.022,69.812 309.719,67.975 310.301,68.049" fill="#F0BD8A" id="path111"/>
    <path d="M310.301,68.049 C309.384,67.622 310.054,65.566 308.118,67.319 C308.328,67.48 310.059,68.562 310.301,68.779 C310.301,68.292 310.301,67.806 310.301,67.319 C309.817,67.319 309.331,67.319 308.847,67.319 C309.044,69.899 309.637,68.1 310.301,68.049" fill="#F2BF8C" id="path113"/>
    <path d="M310.301,68.049 C309.674,68.036 309.047,66.169 308.847,68.778 C309.331,68.778 309.817,68.778 310.301,68.778 C310.301,68.291 310.301,67.805 310.301,67.318 C309.817,67.318 309.331,67.318 308.847,67.318 C308.686,69.826 309.309,68.029 310.301,68.049" fill="#F5C28F" id="path115"/>
    <path d="M310.301,68.049 C309.63,67.989 309.045,66.202 308.847,68.778 C308.843,68.791 309.979,68.03 310.301,68.049 C308.825,67.563 308.156,67.859 310.301,68.049" fill="#F7C491" id="path117"/>
    <path d="M309.575,68.049 C308.772,67.244 308.778,67.249 309.575,68.049" fill="#FAC794" id="path119"/>
    <path d="M309.575,68.049 C309.228,67.699 309.238,67.71 309.575,68.049" fill="#FFCC99" id="path121"/>
    <path d="M252.781,79.002 C268.066,80.273 263.564,92.464 276.081,97.258 C287.333,101.567 291.916,89.831 300.837,92.147 C309.451,94.383 319.299,111.019 317.585,119.895 C317.317,121.278 312.253,121.381 311.759,123.546 C311.064,126.594 313.442,130.571 313.217,131.579 C311.216,140.558 314.661,136.022 303.021,138.151 C291.511,140.255 282.483,141.384 272.441,135.961 C265.984,132.474 251.496,125.906 246.229,118.435 C243.502,114.568 244.733,109.354 242.589,103.831 C240.936,99.572 235.539,95.582 235.309,91.416 C234.854,83.203 245.521,69.092 252.781,79.002" fill="#B2B2B2" id="path123"/>
    <path d="M240.402,100.178 C245.328,81.943 252.429,101.74 260.791,107.481 C268.722,112.926 289.26,109.859 295.74,118.434 C273.742,122.638 254.059,108.412 246.228,95.067 C244.17,97.658 242.616,98.031 242.588,103.1 C241.86,102.125 241.131,101.152 240.402,100.178" fill="#4C4C4C" id="path125"/>
    <path d="M312.487,65.858 C311.546,80.617 299.306,59.874 312.487,65.858" fill="#000000" id="path127"/>
    <path d="M252.781,69.508 C261.297,65.254 269.082,59.082 273.897,53.444 C279.88,46.439 279.929,45.621 290.642,42.49 C291.054,44.127 291.054,44.235 291.371,46.141 C316.91,36.26 304.024,64.594 284.091,64.397 C285.12,62.343 285.513,59.722 287.002,57.825 C278.75,61.048 273.805,66.959 267.345,73.89 C263.63,77.876 266.402,83.062 257.151,79.731 C252.212,77.954 249.669,74.104 252.781,69.508" fill="#666666" id="path129"/>
    <path d="M296.469,29.346" fill="#D1A691" id="path131"/>
    <path d="M244.046,68.049 C254.323,67.003 249.713,78.278 260.791,76.081 C258.342,80.39 248.883,80.783 245.501,84.844 C245.12,81.417 244.041,79.318 244.774,76.081 C243.355,76.681 243.072,76.688 241.86,77.541 C241.361,73.186 242.285,70.808 244.046,68.049" fill="#191919" id="path133"/>
    <path d="M251.327,74.62 C253.258,75.461 255.846,77.638 258.607,78.272 C252.594,80.857 247.012,79.469 251.327,74.62" fill="#000000" id="path135"/>
    <path d="M257.879,97.987 C266.817,99.617 281.448,123.262 286.639,131.943 C295.482,146.732 308.447,159.087 316.127,174.662 C301.919,147.916 278.384,119.36 257.879,97.987" fill="#E5E5E5" id="path137"/>
    <path d="M265.159,97.987 C276.029,101.363 288.488,119.926 297.196,128.657 C309.368,140.862 321.301,154.257 331.417,168.089 C309.587,144.63 287.153,120.306 265.159,97.987" fill="#E5E5E5" id="path139"/>
    <path d="M269.528,97.987 C280.642,98.942 298.936,115.83 308.846,122.815 C322.253,132.266 335.936,142.588 348.162,153.484 C322.857,134.449 292.771,116.338 269.528,97.987" fill="#E5E5E5" id="path141"/>
    <path d="M401.316,87.764 C396.04,93.036 378.158,90.489 372.919,98.718 C369.126,104.676 373.616,127.84 377.289,130.848 C394.297,144.779 405.991,100.206 401.316,87.764" fill="#000000" id="path143"/>
    <path d="M270.257,179.773 C288.015,179.093 320.96,199.765 335.059,189.996 C343.08,184.437 336.695,172.24 345.251,169.55 C350.668,167.847 352.275,172.187 355.443,174.662 C357.202,176.036 356.538,178.131 358.355,179.773 C362.781,183.774 369.881,186.025 376.56,188.537 C370.868,199.758 383.291,210.92 386.026,219.207 C390.252,232.015 376.672,236.103 368.55,247.686 C354.02,268.412 317.133,260.611 297.196,247.686 C286.648,240.848 277.125,231.401 275.351,216.284 C274.116,205.742 259.403,181.131 270.257,179.773" fill="#E5E5E5" id="path145"/>
    <path d="M253.51,81.192 C259.089,82.402 260.667,88.554 254.239,89.225 C246.452,90.037 248.018,82.453 253.51,81.192" fill="#E5E5E5" id="path147"/>
    <path d="M311.759,111.132 C326.815,118.179 296.144,118.624 311.759,111.132" fill="#666666" id="path149"/>
    <path d="M135.557,152.755 C135.071,153.949 132.98,154.281 134.829,154.946 C169.872,141.205 208.858,160.62 203.271,200.218 C200.723,218.28 191.437,261.409 177.059,267.402 C167.843,271.243 154.771,272.543 145.021,273.242 C131.956,274.18 138.44,267.346 142.836,255.717 C133.266,256.174 129.997,257.571 125.363,260.098 C122.574,261.619 121.608,264.82 118.081,265.942 C110.051,268.496 107.975,266.317 108.616,259.368 C109.493,249.853 121.426,236.213 126.091,226.509 C136.448,204.965 157.65,184.038 186.525,201.681 C189.112,203.262 191.966,206.543 193.805,208.253 C177.225,174.992 143.599,193.599 112.986,189.997 C101.453,188.641 68.234,190.022 97.696,181.966 C112.368,177.953 120.68,184.495 135.557,182.696 C154.183,180.444 170.157,171.219 187.981,181.966 C181.176,166.149 154.291,174.842 138.47,171.742 C129.241,169.933 125.592,165.866 135.557,162.25 C144.39,159.045 157.527,160.463 166.865,161.52 C156.05,158.614 145.758,154.681 135.557,152.755" fill="#666666" id="path151"/>
    <path d="M191.622,240.382 C181.351,239.527 172.253,228.735 159.584,233.079 C152.887,235.375 148.32,246.027 134.829,245.493 C141.549,247.723 155.563,242.098 159.584,244.034 C168.44,248.299 149.291,264.376 146.479,273.241 C155.957,270.305 172.466,272.295 180.7,266.669 C186.868,262.456 189.461,248.12 191.622,240.382" fill="#999999" id="path153"/>
    <path d="M189.437,308.294 C198.835,301.724 213.078,289.72 225.113,290.767 C243.497,292.367 239.669,305.592 235.308,316.326 C229.908,329.62 205.939,363.344 190.893,342.615 C184.086,333.237 184.982,319.756 189.437,308.294" fill="#B2B2B2" id="path155"/>
    <path d="M222.93,300.992 C217.391,308.169 217.833,316.269 217.833,327.279 C199.226,303.205 185.262,359.508 212.736,344.074 C221.058,339.399 224.084,336.311 229.482,328.01 C233.57,321.723 247.225,298.441 222.93,300.992" fill="#E5E5E5" id="path157"/>
    <path d="M205.456,333.121 C208.987,335.055 210.206,339.369 209.825,344.805 C205.007,343.865 203.997,337.75 205.456,333.121" fill="#999999" id="path159"/>
    <path d="M223.659,315.597 C227.19,317.529 228.408,321.844 228.026,327.279 C223.301,325.755 222.206,320.386 223.659,315.597" fill="#999999" id="path161"/>
    <path d="M189.437,277.625 C204.335,259.354 230.17,234.688 245.501,268.861 C233.221,241.756 203.152,272.82 191.622,282.736 C190.894,281.032 190.166,279.329 189.437,277.625" fill="#000000" id="path163"/>
    <path d="M266.617,292.23 C249.204,264.994 291.986,258.614 313.942,263.019 C307.221,272.208 301.1,281.813 305.207,293.689 C294.616,295.708 274.169,296.179 266.617,292.23" fill="#E5E5E5" id="path165"/>
    <path d="M263.705,274.703 C275.619,283.32 281.818,286.301 288.459,265.211 C289.096,269.893 288.274,279.692 292.349,282.416 C297.497,285.859 302.76,287.866 303.749,294.418 C286.797,293.113 256.387,301.574 263.705,274.703" fill="#B2B2B2" id="path167"/>
    <path d="M276.81,266.669 C277.833,268.974 278.759,271.074 277.539,274.702 C277.054,274.702 276.567,274.702 276.082,274.702 C274.798,271.512 275.791,268.947 276.81,266.669" fill="#999999" id="path169"/>
    <path d="M300.402,28.287 C300.402,28.287 318.053,37.113 319.721,30.641 C321.389,24.169 318.152,10.732 317.367,8.477 C316.582,6.222 315.406,1.71 312.267,1.514 C309.128,1.318 304.814,2.397 304.421,6.123 C304.028,9.849 304.42,22.989 302.46,25.051 C300.5,27.113 300.402,28.287 300.402,28.287 z" fill="#7D695E" id="path171"/>
    <path d="M373.565,66.062 C373.961,58.958 376.415,49.848 383.949,39.511 C391.483,29.174 395.864,21.639 400.419,19.712 C404.974,17.785 408.652,17.259 410.931,17.785 C413.21,18.311 414.961,20.238 416.713,27.071 C418.465,33.904 419.867,43.19 419.166,48.972 C418.465,54.754 411.282,70.522 406.376,73.851 C401.47,77.18 396.389,83.138 391.658,84.714 C386.927,86.29 381.845,86.291 378.167,82.261 C374.489,78.231 373.565,66.062 373.565,66.062 z" fill="#7D695E" id="path173"/>
  </g>
</svg>
